<?xml version="1.0"?>
<svg xmlns="http://www.w3.org/2000/svg" id="Capa_1" enable-background="new 0 0 512 512" height="512px" viewBox="0 0 512 512" width="512px"><g><path d="m84.721 50.097h193.005c4.143 0 7.5-3.358 7.5-7.5s-3.357-7.5-7.5-7.5h-193.005c-4.143 0-7.5 3.358-7.5 7.5s3.357 7.5 7.5 7.5z" data-original="#000000" class="active-path" data-old_color="#000000" fill="#1F4A8A"/><path d="m84.721 82.552h193.005c4.143 0 7.5-3.358 7.5-7.5s-3.357-7.5-7.5-7.5h-193.005c-4.143 0-7.5 3.358-7.5 7.5s3.357 7.5 7.5 7.5z" data-original="#000000" class="active-path" data-old_color="#000000" fill="#1F4A8A"/><path d="m84.721 186.356h193.005c4.143 0 7.5-3.358 7.5-7.5s-3.357-7.5-7.5-7.5h-193.005c-4.143 0-7.5 3.358-7.5 7.5s3.357 7.5 7.5 7.5z" data-original="#000000" class="active-path" data-old_color="#000000" fill="#1F4A8A"/><path d="m84.721 218.811h193.005c4.143 0 7.5-3.358 7.5-7.5s-3.357-7.5-7.5-7.5h-193.005c-4.143 0-7.5 3.358-7.5 7.5s3.357 7.5 7.5 7.5z" data-original="#000000" class="active-path" data-old_color="#000000" fill="#1F4A8A"/><path d="m277.726 307.615h-193.005c-4.143 0-7.5 3.358-7.5 7.5s3.357 7.5 7.5 7.5h193.005c4.143 0 7.5-3.358 7.5-7.5s-3.358-7.5-7.5-7.5z" data-original="#000000" class="active-path" data-old_color="#000000" fill="#1F4A8A"/><path d="m277.726 340.07h-193.005c-4.143 0-7.5 3.358-7.5 7.5s3.357 7.5 7.5 7.5h193.005c4.143 0 7.5-3.358 7.5-7.5s-3.358-7.5-7.5-7.5z" data-original="#000000" class="active-path" data-old_color="#000000" fill="#1F4A8A"/><path d="m440.158 117.649c15.293 0 27.734-12.441 27.734-27.734v-62.18c.001-15.294-12.441-27.735-27.734-27.735h-368.316c-15.293 0-27.735 12.441-27.735 27.734v13.554c0 4.142 3.357 7.5 7.5 7.5s7.5-3.358 7.5-7.5v-13.554c0-7.021 5.713-12.734 12.735-12.734h368.316c7.021 0 12.734 5.713 12.734 12.734v62.18c0 7.022-5.713 12.734-12.734 12.734h-368.316c-7.021 0-12.734-5.712-12.734-12.734v-13.553c0-4.142-3.357-7.5-7.5-7.5s-7.5 3.358-7.5 7.5v13.554c0 15.293 12.441 27.734 27.734 27.734h5.379v18.166h-5.379c-15.293 0-27.734 12.441-27.734 27.734v62.18c0 15.293 12.441 27.734 27.734 27.734h5.379v18.166h-5.379c-15.293 0-27.734 12.441-27.734 27.734v62.18c0 15.293 12.441 27.734 27.734 27.734h160.844v37.023c-4.813 1.985-8.211 6.723-8.211 12.243v10.404h-20.896c-5.521 0-10.258 3.398-12.243 8.211h-134.703c-6.906 0-12.524 5.619-12.524 12.525v21.579c0 6.907 5.618 12.525 12.524 12.525h134.702c1.985 4.813 6.723 8.211 12.243 8.211h103.932c5.521 0 10.258-3.398 12.243-8.211h135.614c6.906 0 12.525-5.619 12.525-12.525v-21.579c0-6.906-5.619-12.525-12.525-12.525h-135.614c-1.985-4.813-6.723-8.211-12.243-8.211h-19.984v-10.404c0-5.521-3.398-10.258-8.211-12.243v-37.023h160.844c15.293 0 27.734-12.441 27.734-27.734v-13.553c0-4.142-3.357-7.5-7.5-7.5s-7.5 3.358-7.5 7.5v13.554c0 7.021-5.713 12.734-12.734 12.734h-368.317c-7.021 0-12.734-5.713-12.734-12.734v-62.18c0-7.022 5.713-12.734 12.734-12.734h368.316c7.021 0 12.734 5.712 12.734 12.734v13.554c0 4.142 3.357 7.5 7.5 7.5s7.5-3.358 7.5-7.5v-13.554c0-15.293-12.441-27.734-27.734-27.734h-2.718v-18.166h2.718c15.293 0 27.734-12.441 27.734-27.734v-62.18c0-15.293-12.441-27.734-27.734-27.734h-2.718v-18.166h2.718zm-381.05 354.511h131.228v16.629h-131.228zm393.785 16.629h-132.141v-16.629h132.141zm-147.141-24.841v33.052h-100.416v-33.052h26.639c4.143 0 7.5-3.358 7.5-7.5v-16.146h33.051v16.146c0 4.142 3.357 7.5 7.5 7.5zm-41.438-38.646h-16.629v-36.024h16.629zm158.126-153.673h-330.219v-18.166h330.22v18.166zm30.453-108.08v62.18c0 7.022-5.713 12.734-12.734 12.734h-368.317c-7.021 0-12.734-5.712-12.734-12.734v-62.18c0-7.021 5.713-12.734 12.734-12.734h368.316c7.022-.001 12.735 5.712 12.735 12.734zm-30.453-27.735h-330.219v-18.166h330.22v18.166z" data-original="#000000" class="active-path" data-old_color="#000000" fill="#1F4A8A"/><path d="m429.77 58.824c0-16.828-13.69-30.518-30.518-30.518s-30.518 13.69-30.518 30.518 13.69 30.518 30.518 30.518 30.518-13.69 30.518-30.518zm-46.036 0c0-8.557 6.961-15.518 15.518-15.518s15.518 6.961 15.518 15.518-6.961 15.518-15.518 15.518-15.518-6.961-15.518-15.518z" data-original="#000000" class="active-path" data-old_color="#000000" fill="#1F4A8A"/><path d="m399.252 225.139c16.827 0 30.518-13.69 30.518-30.518s-13.69-30.518-30.518-30.518-30.518 13.69-30.518 30.518 13.691 30.518 30.518 30.518zm0-46.035c8.557 0 15.518 6.961 15.518 15.518s-6.961 15.518-15.518 15.518-15.518-6.961-15.518-15.518 6.961-15.518 15.518-15.518z" data-original="#000000" class="active-path" data-old_color="#000000" fill="#1F4A8A"/><path d="m368.734 330.454c0 16.828 13.69 30.518 30.518 30.518s30.518-13.69 30.518-30.518-13.69-30.518-30.518-30.518-30.518 13.69-30.518 30.518zm46.036 0c0 8.557-6.961 15.518-15.518 15.518s-15.518-6.961-15.518-15.518 6.961-15.518 15.518-15.518 15.518 6.961 15.518 15.518z" data-original="#000000" class="active-path" data-old_color="#000000" fill="#1F4A8A"/></g> </svg>
